<svg width="163" height="151" viewBox="0 0 163 151" fill="none" xmlns="http://www.w3.org/2000/svg">
<path d="M62.0231 137.897C63.5551 132.299 64.7336 127.526 66.1773 122.841C68.5933 114.886 71.3333 107.138 76.9607 100.685C82.6765 94.1446 89.8065 91.6697 97.9677 94.0562C102.976 95.5294 107.573 98.3578 112.257 100.744C114.084 101.687 115.675 103.16 118.179 104.957C117.236 100.479 116.441 96.973 115.793 93.4375C114.172 84.8049 112.198 76.2312 111.167 67.5397C109.694 55.6367 115.704 48.5068 127.725 47.4461C132.439 47.0336 137.3 47.7702 142.103 48.0354C143.547 48.1237 144.961 48.4184 146.67 48.6541C142.25 41.583 137.949 34.9244 133.942 28.148C124.602 12.3265 135.12 2.69213 147.789 1.04222C151.177 0.600271 154.742 0.983296 158.19 1.30739C160.488 1.60201 162.373 3.07515 162.02 5.60895C161.725 7.90705 159.663 8.55523 157.482 8.61415C155.332 8.70254 153.151 8.64361 151.06 8.9677C148.614 9.35072 146.139 9.7632 143.812 10.6176C137.271 13.0336 135.326 17.0994 138.096 23.5223C140.041 28.0596 142.663 32.3317 145.196 36.5743C147.554 40.5223 150.117 44.382 152.68 48.2416C153.976 50.2451 155.214 52.3075 153.976 54.6645C152.562 57.3751 149.881 57.1688 147.406 56.992C144.254 56.7858 141.16 56.1082 138.008 56.0787C134.03 55.9903 130.023 55.9903 126.134 56.5206C120.86 57.2572 118.798 59.5553 118.827 64.8881C118.857 69.9851 119.181 75.2 120.035 80.2382C121.921 91.0215 124.16 101.687 126.429 112.382C126.959 114.916 126.93 117.067 124.72 118.569C122.628 120.013 120.625 119.129 118.768 117.744C115.469 115.269 112.228 112.618 108.81 110.32C105.805 108.316 102.682 106.313 99.3819 104.899C90.5725 101.098 84.6799 102.983 79.1704 110.791C75.0161 116.654 72.1288 123.136 70.0664 129.971C68.5638 134.892 67.3853 139.9 66.0889 144.85C65.4113 147.472 64.7042 150.183 61.4338 150.566C58.3402 150.89 56.6903 148.651 55.1877 146.382C54.569 145.41 54.0976 144.349 53.5967 143.318C52.6244 141.226 51.5048 139.164 50.7388 136.983C44.9347 120.808 32.2656 115.387 16.4441 115.181C13.5273 115.152 10.581 116.035 7.66423 116.595C6.22055 116.86 4.80634 117.567 3.36266 117.656C2.33147 117.744 0.769936 117.42 0.357461 116.713C-0.113947 115.947 0.239607 114.415 0.563699 113.502C1.30026 111.528 3.30375 109.878 5.13044 109.112C8.75436 107.609 12.614 106.283 16.4736 105.9C25.0178 105.016 33.2968 106.755 41.2813 109.966C48.0872 112.706 52.6834 117.833 55.9243 124.197C57.9867 128.38 59.6955 132.682 62.0231 137.897Z" fill="#FF5500"/>
</svg>
