<svg width="266" height="167" viewBox="0 0 266 167" fill="none" xmlns="http://www.w3.org/2000/svg">
<path d="M114.694 58.5364C111.313 54.6925 108.853 51.8714 106.374 49.0846C96.4209 37.8068 86.3533 26.5356 76.5528 15.183C74.1975 12.4717 72.2625 9.40559 71.2707 6.33516C70.7422 4.51225 71.7501 1.82388 73.4971 0.582366C74.5186 -0.154396 79.0705 0.611236 80.83 1.71849C85.1575 4.36661 89.0933 7.41767 92.6095 10.6251C103.528 20.6729 114.19 30.8843 125.374 41.4464C130.23 35.5433 134.877 29.619 139.961 23.9014C143.88 19.4748 148.275 15.1865 152.754 11.0422C155.649 8.34524 159.646 6.44564 164.452 8.43769C169.448 10.485 169.476 13.9911 167.485 17.3479C161.646 27.3774 155.539 37.2898 149.605 47.2918C148.169 49.6571 146.924 52.0778 145.583 54.4708C145.915 54.9647 151.998 53.3927 154.916 52.5309C179.86 45.1486 204.766 37.8347 229.824 30.6444C233.323 29.6337 237.335 29.0899 241.108 29.0728C243.109 29.0577 246.135 30.3739 246.78 31.5945C247.424 32.8151 246.36 35.2089 244.88 36.1704C242.074 38.0184 238.621 39.4402 235.141 40.6154C212.148 48.5645 189.099 56.4176 166.078 64.3187C163.55 65.1746 160.985 66.0989 157.199 67.4239C169.538 70.2924 180.726 72.7469 191.761 75.4749C213.954 81.0066 236.117 86.6888 258.253 92.323C259.605 92.6759 261.033 93.0907 262.079 93.5934C268.92 96.8921 265.247 102.066 259.248 101.118C251.915 99.982 244.419 99.0371 237.183 97.5315C211.293 92.0788 185.518 86.421 159.686 80.8657C159.143 80.7478 158.591 80.7463 156.848 80.5978C161.538 86.4515 165.877 91.8456 170.235 97.2054C178.429 107.376 186.823 117.485 194.749 127.737C196.857 130.496 198.258 133.725 198.84 136.835C199.488 140.124 195.968 141.764 192.277 139.858C187.796 137.483 183.479 134.52 180.411 131.204C165.421 115.085 150.89 98.7414 136.206 82.4726C134.573 80.6467 132.939 78.8208 130.584 76.1095C125.523 83.6624 121.045 90.4704 116.377 97.2232C102.468 117.31 88.5594 137.398 74.5554 157.457C72.9868 159.665 71.0658 161.81 68.8882 163.721C65.9179 166.356 61.9513 167.51 57.4683 165.929C53.271 164.432 51.9164 161.614 52.8017 158.453C53.6581 155.442 54.8859 152.46 56.5229 149.636C67.1878 131.19 77.9764 112.82 88.7365 94.402C89.55 93.0484 90.2493 91.7013 91.5707 89.3425C88.5385 90.2107 86.46 90.7597 84.3908 91.3909C61.296 98.4359 38.182 105.515 15.0395 112.546C12.4363 113.34 9.59516 114.065 6.79395 114.126C4.88837 114.169 2.05163 113.305 1.21623 112.228C0.380825 111.15 1.22508 109.051 1.89534 107.854C4.04943 104.107 7.79607 103.248 11.4776 101.813C33.1473 93.3605 54.9975 85.0796 76.9047 76.8947C84.8111 73.9443 93.0211 71.4399 102.872 68.1799C89.3792 65.4931 77.6191 63.2699 66.0122 60.7731C54.8529 58.3666 43.8468 55.6866 32.7356 53.0954C31.5549 52.8319 30.4416 52.3496 29.4519 51.9429C24.2462 49.8744 29.6764 46.6023 31.4003 46.7851C43.2775 48.0089 55.2116 49.3287 66.9634 51.0726C80.8578 53.2401 111.34 58.3971 114.694 58.5364Z" fill="#FF5500"/>
</svg>
