<svg width="630" height="593" viewBox="0 0 630 593" fill="none" xmlns="http://www.w3.org/2000/svg">
<path d="M200.761 144.961C200.485 187.39 192.296 239.209 148.683 293.648C98.4689 356.326 138.556 221.323 200.761 144.961C220.733 120.443 242.985 101.97 265.261 98.0256C304.854 91.015 304.599 146.584 288.059 214.926C322.018 171.267 354.848 143.364 371.475 159.991C385.193 173.708 386.619 203.414 380.482 240.281C413.886 200.413 444.872 175.631 462.684 184.826C498.578 203.355 487.4 273.942 460.236 342.111C432.544 411.602 388.241 478.581 360.255 485.343C332.292 492.098 387.716 398.398 460.236 342.111C487.4 273.942 498.578 203.355 462.684 184.826C444.872 175.631 413.886 200.413 380.482 240.281C361.81 352.449 273.12 530.902 247.565 526.981C205.217 520.484 299.886 336.472 380.482 240.281C386.619 203.414 385.193 173.708 371.475 159.991C354.848 143.364 322.018 171.267 288.059 214.926C259.844 331.511 184.24 485.265 178.238 428.909C174.943 397.973 232.985 285.73 288.059 214.926C304.599 146.584 304.854 91.015 265.261 98.0256C242.985 101.97 220.733 120.443 200.761 144.961Z" fill="#FF5500"/>
<path d="M198.612 83.9508C198.612 130.457 216.597 208.876 148.683 293.648C82.3467 376.45 173.607 114.254 265.261 98.0256C372.398 79.0554 187.758 518.301 178.238 428.909C172.911 378.898 327.884 116.399 371.475 159.991C426.929 215.445 281.519 532.191 247.565 526.981C187.666 517.791 401.897 153.446 462.684 184.826C535.168 222.244 415.694 471.949 360.255 485.343C315.904 496.057 481.32 254.065 592.012 309.449" stroke="#101724" stroke-width="8" stroke-linecap="round"/>
<path d="M602.13 291.089L601.554 295.131C601.262 297.181 603.014 298.94 605.065 298.655L620.779 296.476C621.718 296.346 622.178 297.582 621.382 298.097L609.704 305.647C607.595 307.011 607.885 310.183 610.207 311.141L618.156 314.423C618.966 314.757 618.851 315.938 617.993 316.11L612.79 317.156C610.96 317.523 609.862 319.407 610.445 321.181L611.921 325.674C612.171 326.435 611.364 327.11 610.659 326.731L604.315 323.31C601.781 321.944 598.908 324.454 599.923 327.149L603.412 336.415C603.747 337.305 602.635 338.026 601.96 337.356L592.096 327.573C591.106 326.591 589.584 326.387 588.37 327.073L577.251 333.364C576.43 333.828 575.549 332.859 576.088 332.086L582.637 322.7C583.569 321.363 583.313 319.532 582.048 318.503L570.631 309.209C569.985 308.682 570.357 307.636 571.19 307.636H579.986C581.535 307.636 582.848 306.499 583.069 304.966L584.448 295.404C584.58 294.488 585.851 294.362 586.159 295.235L588.394 301.559C589.286 304.086 592.742 304.38 594.049 302.041L600.48 290.532C600.958 289.675 602.268 290.117 602.13 291.089Z" fill="#FF5500" stroke="#101724" stroke-width="2.22855"/>
</svg>
